<?xml version="1.0" encoding="UTF-8" standalone="no"?>
<!-- Created with Inkscape (http://www.inkscape.org/) -->

<svg
   xmlns:dc="http://purl.org/dc/elements/1.1/"
   xmlns:cc="http://creativecommons.org/ns#"
   xmlns:rdf="http://www.w3.org/1999/02/22-rdf-syntax-ns#"
   xmlns:svg="http://www.w3.org/2000/svg"
   xmlns="http://www.w3.org/2000/svg"
   xmlns:xlink="http://www.w3.org/1999/xlink"
   xmlns:sodipodi="http://sodipodi.sourceforge.net/DTD/sodipodi-0.dtd"
   xmlns:inkscape="http://www.inkscape.org/namespaces/inkscape"
   width="1400"
   height="560"
   id="svg2"
   version="1.1"
   inkscape:version="0.48.4 r9939"
   sodipodi:docname="promo_marquee.svg"
   inkscape:export-xdpi="90"
   inkscape:export-ydpi="90">
  <defs
     id="defs4">
    <linearGradient
       id="linearGradient5371">
      <stop
         style="stop-color:#a9a9a9;stop-opacity:1;"
         offset="0"
         id="stop5373" />
      <stop
         style="stop-color:#9a9a9a;stop-opacity:1;"
         offset="1"
         id="stop5375" />
    </linearGradient>
    <linearGradient
       id="linearGradient4580">
      <stop
         style="stop-color:#afafaf;stop-opacity:1;"
         offset="0"
         id="stop4582" />
      <stop
         style="stop-color:#f5f5f5;stop-opacity:1;"
         offset="1"
         id="stop4584" />
    </linearGradient>
    <linearGradient
       id="linearGradient3854-3">
      <stop
         style="stop-color:#fafafa;stop-opacity:1;"
         offset="0"
         id="stop3856-5" />
      <stop
         id="stop3862-7"
         offset="0.25"
         style="stop-color:#e6e6e6;stop-opacity:1;" />
      <stop
         style="stop-color:#fafafa;stop-opacity:1;"
         offset="1"
         id="stop3858-3" />
    </linearGradient>
    <linearGradient
       inkscape:collect="always"
       xlink:href="#linearGradient4580"
       id="linearGradient4586"
       x1="-101"
       y1="472"
       x2="1436"
       y2="27"
       gradientUnits="userSpaceOnUse" />
    <linearGradient
       inkscape:collect="always"
       xlink:href="#linearGradient3854-3"
       id="linearGradient4626"
       gradientUnits="userSpaceOnUse"
       x1="5.9531455"
       y1="2.386224"
       x2="11.961667"
       y2="8.3947458" />
    <linearGradient
       inkscape:collect="always"
       xlink:href="#linearGradient3854-3"
       id="linearGradient4628"
       gradientUnits="userSpaceOnUse"
       x1="9.175106"
       y1="3.0455589"
       x2="14.512009"
       y2="14.771547" />
    <linearGradient
       inkscape:collect="always"
       xlink:href="#linearGradient5371"
       id="linearGradient5379"
       gradientUnits="userSpaceOnUse"
       x1="238.4734"
       y1="455.19595"
       x2="1096.2653"
       y2="230.336" />
  </defs>
  <sodipodi:namedview
     id="base"
     pagecolor="#ffffff"
     bordercolor="#666666"
     borderopacity="1.0"
     inkscape:pageopacity="0.0"
     inkscape:pageshadow="2"
     inkscape:zoom="0.70710678"
     inkscape:cx="839.32529"
     inkscape:cy="409.29885"
     inkscape:document-units="px"
     inkscape:current-layer="layer4"
     showgrid="false"
     inkscape:window-width="1148"
     inkscape:window-height="1060"
     inkscape:window-x="0"
     inkscape:window-y="16"
     inkscape:window-maximized="0"
     fit-margin-top="0"
     fit-margin-left="0"
     fit-margin-right="0"
     fit-margin-bottom="0">
    <inkscape:grid
       type="xygrid"
       id="grid3782"
       empspacing="5"
       visible="true"
       enabled="true"
       snapvisiblegridlinesonly="true"
       originx="0px"
       originy="-1.6074219e-05px" />
  </sodipodi:namedview>
  <metadata
     id="metadata7">
    <rdf:RDF>
      <cc:Work
         rdf:about="">
        <dc:format>image/svg+xml</dc:format>
        <dc:type
           rdf:resource="http://purl.org/dc/dcmitype/StillImage" />
        <dc:title />
      </cc:Work>
    </rdf:RDF>
  </metadata>
  <g
     inkscape:groupmode="layer"
     id="layer5"
     inkscape:label="BG"
     style="display:inline">
    <rect
       style="opacity:0.16942151;fill:url(#linearGradient4586);fill-opacity:1;stroke:none"
       id="rect4578"
       width="1400"
       height="560"
       x="0"
       y="-1.4876989e-14" />
  </g>
  <g
     inkscape:label="Logo"
     inkscape:groupmode="layer"
     id="layer1"
     transform="translate(0,-492.3622)"
     style="display:inline">
    <path
       inkscape:transform-center-y="-0.2888964"
       inkscape:transform-center-x="0.38083646"
       transform="matrix(17.947324,0,0,17.947324,107.1684,605.87904)"
       d="M 12.90625,9.25 9.3297684,8.415144 5.8493365,10.525508 5.5381381,6.8660874 2.4555499,4.2081383 5.8397003,2.7813479 7.4149879,-0.97171918 9.8177062,1.8058966 13.873876,2.1443227 11.974687,5.2877741 z"
       inkscape:randomized="0"
       inkscape:rounded="0"
       inkscape:flatsided="false"
       sodipodi:arg2="1.3303299"
       sodipodi:arg1="0.76366246"
       sodipodi:r2="3.4841433"
       sodipodi:r1="6.1002369"
       sodipodi:cy="5.03125"
       sodipodi:cx="8.5"
       sodipodi:sides="5"
       id="path4620"
       style="opacity:0.74793384;fill:url(#linearGradient4626);fill-opacity:1;stroke:#4d4d4d;stroke-width:1.07552528;stroke-miterlimit:4;stroke-opacity:1;stroke-dasharray:none"
       sodipodi:type="star" />
    <path
       sodipodi:open="true"
       sodipodi:end="4.4194866"
       sodipodi:start="0.87639492"
       transform="matrix(20.205889,0,0,20.232082,-37.034964,546.81174)"
       d="M 16.078913,13.532335 C 13.446332,15.724651 9.5349804,15.367745 7.3426649,12.735163 5.1503494,10.102582 5.5072554,6.1912304 8.1398367,3.9989149 8.779931,3.4658683 9.5208276,3.0672005 10.318333,2.8266917"
       sodipodi:ry="6.203125"
       sodipodi:rx="6.203125"
       sodipodi:cy="8.765625"
       sodipodi:cx="12.109375"
       id="path4622"
       style="opacity:0.74793384;fill:none;stroke:#737373;stroke-width:2.66139054;stroke-linecap:round;stroke-miterlimit:4;stroke-opacity:1;stroke-dasharray:none"
       sodipodi:type="arc" />
    <path
       sodipodi:open="true"
       sodipodi:type="arc"
       style="opacity:0.74793384;fill:none;stroke:url(#linearGradient4628);stroke-width:0.53334481;stroke-linecap:round;stroke-miterlimit:4;stroke-opacity:1;stroke-dasharray:none"
       id="path4624"
       sodipodi:cx="12.109375"
       sodipodi:cy="8.765625"
       sodipodi:rx="6.203125"
       sodipodi:ry="6.203125"
       d="M 16.091098,13.522162 C 13.464135,15.721207 9.5518827,15.374311 7.352838,12.747348 5.1537933,10.120385 5.5006895,6.2081327 8.1276523,4.009088 8.7889167,3.45554 9.5583363,3.045953 10.386791,2.8064755"
       transform="matrix(20.205889,0,0,20.232082,-37.034964,546.81174)"
       sodipodi:start="0.87383605"
       sodipodi:end="4.4309938" />
  </g>
  <g
     inkscape:groupmode="layer"
     id="layer4"
     inkscape:label="Arrows"
     style="display:inline">
    <path
       style="fill:none;stroke:#d0d0d0;stroke-width:5.30000019;stroke-linecap:butt;stroke-linejoin:miter;stroke-miterlimit:4;stroke-opacity:0.90980392;stroke-dasharray:none"
       d="m 319,104 0,-57 296,0 0,66 239,0 0,-34 48,0"
       id="path5267"
       inkscape:connector-curvature="0" />
    <path
       style="color:#000000;fill:none;stroke:#d0d0d0;stroke-width:5.30000019;stroke-linecap:butt;stroke-linejoin:miter;stroke-miterlimit:4;stroke-opacity:0.90980392;stroke-dasharray:none;stroke-dashoffset:0;marker:none;visibility:visible;display:inline;overflow:visible;enable-background:accumulate"
       d="m 344,118 0,-44 197,0 0,22 50,0 0,52 114,0"
       id="path5275"
       inkscape:connector-curvature="0" />
    <path
       style="color:#000000;fill:none;stroke:#d0d0d0;stroke-width:5.30000019;stroke-linecap:butt;stroke-linejoin:miter;stroke-miterlimit:4;stroke-opacity:0.90980392;stroke-dasharray:none;stroke-dashoffset:0;marker:none;visibility:visible;display:inline;overflow:visible;enable-background:accumulate"
       d="m 295,87 0,-60 348,0 0,26 74,0"
       id="path5277"
       inkscape:connector-curvature="0" />
    <path
       style="color:#000000;fill:none;stroke:#d0d0d0;stroke-width:5.30000019;stroke-linecap:butt;stroke-linejoin:miter;stroke-miterlimit:4;stroke-opacity:0.90980392;stroke-dasharray:none;stroke-dashoffset:0;marker:none;visibility:visible;display:inline;overflow:visible;enable-background:accumulate"
       d="M 374,130.78858 374,99 l 68,0 0,29.85786 104,0"
       id="path5279"
       inkscape:connector-curvature="0"
       sodipodi:nodetypes="ccccc" />
    <path
       style="color:#000000;fill:none;stroke:#d0d0d0;stroke-width:5.30000019;stroke-linecap:butt;stroke-linejoin:miter;stroke-miterlimit:4;stroke-opacity:0.90980392;stroke-dasharray:none;stroke-dashoffset:0;marker:none;visibility:visible;display:inline;overflow:visible;enable-background:accumulate"
       d="m 336.58283,319.58369 0,44.54773 121.62236,0 0,-44.54773 236.17367,0 0,22.62742 47.37615,0"
       id="path5285"
       inkscape:connector-curvature="0" />
    <path
       style="color:#000000;fill:none;stroke:#d0d0d0;stroke-width:5.30000019;stroke-linecap:butt;stroke-linejoin:miter;stroke-miterlimit:4;stroke-opacity:0.90980392;stroke-dasharray:none;stroke-dashoffset:0;marker:none;visibility:visible;display:inline;overflow:visible;enable-background:accumulate"
       d="m 312.5412,369.08117 0,33.23402 48.08326,0 0,44.54772 110.30866,0 19.79899,0 0,-110.30865 62.22539,0 0,49.49747 99.70206,0"
       id="path5287"
       inkscape:connector-curvature="0" />
    <path
       style="color:#000000;fill:none;stroke:#d0d0d0;stroke-width:5.30000019;stroke-linecap:butt;stroke-linejoin:miter;stroke-miterlimit:4;stroke-opacity:0.90980392;stroke-dasharray:none;stroke-dashoffset:0;marker:none;visibility:visible;display:inline;overflow:visible;enable-background:accumulate"
       d="m 277.89297,386.05173 0,36.76955 52.3259,0 0,50.91169 195.86858,0 0,-64.34671 214.96046,0"
       id="path5289"
       inkscape:connector-curvature="0" />
    <path
       style="opacity:0.74793384;color:#000000;fill:none;stroke:url(#linearGradient5379);stroke-width:5.30000019;stroke-linecap:butt;stroke-linejoin:miter;stroke-miterlimit:4;stroke-opacity:0.90980392;stroke-dasharray:none;stroke-dashoffset:0;marker:none;visibility:visible;display:inline;overflow:visible;enable-background:accumulate"
       d="m 232.63813,400.90097 0,94.04521 335.87572,0 0,-62.93251 210.71782,0 0,-65.05382 64.34672,0 0,24.97666 24.04163,0 0,-97.80866 114.5513,0 0,27.87215 35.82868,0 0,-61 40,0 0,-69 54,0"
       id="path5291"
       inkscape:connector-curvature="0"
       sodipodi:nodetypes="ccccccccccc" />
    <path
       style="color:#000000;fill:none;stroke:#d0d0d0;stroke-width:5.30000019;stroke-linecap:butt;stroke-linejoin:miter;stroke-miterlimit:4;stroke-opacity:0.90980392;stroke-dasharray:none;stroke-dashoffset:0;marker:none;visibility:visible;display:inline;overflow:visible;enable-background:accumulate"
       d="m 208.5965,403.02229 0,109.60156 376.88792,0 0,-52.60408 205.06096,0 0,22.19848 19.79899,0 0,-64.34671 95.45942,0 0,-62.21068 29.69848,0 0,26.85534 183.84773,0"
       id="path5293"
       inkscape:connector-curvature="0"
       sodipodi:nodetypes="ccccccccccccc" />
    <path
       style="color:#000000;fill:none;stroke:#d0d0d0;stroke-width:5.30000019;stroke-linecap:butt;stroke-linejoin:miter;stroke-miterlimit:4;stroke-opacity:0.90980392;stroke-dasharray:none;stroke-dashoffset:0;marker:none;visibility:visible;display:inline;overflow:visible;enable-background:accumulate"
       d="m 156.2706,393.82991 0,144.24978 489.31789,0 0,-24.04163 190.21173,0 0,-53.74012 122.32947,0 0,-39.59798 108.89441,0 0,65.76093 142.8356,0 0,-77.07463 38.8909,0"
       id="path5295"
       inkscape:connector-curvature="0" />
    <path
       transform="translate(0,-492.3622)"
       style="color:#000000;fill:none;stroke:#d0d0d0;stroke-width:5.30000019;stroke-linecap:butt;stroke-linejoin:miter;stroke-miterlimit:4;stroke-opacity:0.90980392;stroke-dasharray:none;stroke-dashoffset:0;marker:none;visibility:visible;display:inline;overflow:visible;enable-background:accumulate"
       d="m 125.865,885.485 0,105.35891"
       id="path5297"
       inkscape:connector-curvature="0" />
    <path
       transform="translate(0,-492.3622)"
       style="color:#000000;fill:none;stroke:#d0d0d0;stroke-width:5.30000019;stroke-linecap:butt;stroke-linejoin:miter;stroke-miterlimit:4;stroke-opacity:0.90980392;stroke-dasharray:none;stroke-dashoffset:0;marker:none;visibility:visible;display:inline;overflow:visible;enable-background:accumulate"
       d="m 89.095454,859.32205 0,52.3259 17.677666,0 0,80.61017 -43.13351,0 0,40.30508 -35.355339,0"
       id="path5299"
       inkscape:connector-curvature="0" />
    <path
       style="color:#000000;fill:none;stroke:#d0d0d0;stroke-width:5.30000019;stroke-linecap:butt;stroke-linejoin:miter;stroke-miterlimit:4;stroke-opacity:0.90980392;stroke-dasharray:none;stroke-dashoffset:0;marker:none;visibility:visible;display:inline;overflow:visible;enable-background:accumulate"
       d="m 45.961941,301.90602 0,118.08684 -36.7695528,0"
       id="path5301"
       inkscape:connector-curvature="0" />
    <path
       style="color:#000000;fill:none;stroke:#d0d0d0;stroke-width:5.30000019;stroke-linecap:butt;stroke-linejoin:miter;stroke-miterlimit:4;stroke-opacity:0.90980392;stroke-dasharray:none;stroke-dashoffset:0;marker:none;visibility:visible;display:inline;overflow:visible;enable-background:accumulate"
       d="m 55.154329,139.27147 0,-45.254839 -36.769553,0 0,-79.195959"
       id="path5303"
       inkscape:connector-curvature="0" />
    <path
       style="color:#000000;fill:none;stroke:#d0d0d0;stroke-width:5.30000019;stroke-linecap:butt;stroke-linejoin:miter;stroke-miterlimit:4;stroke-opacity:0.90980392;stroke-dasharray:none;stroke-dashoffset:0;marker:none;visibility:visible;display:inline;overflow:visible;enable-background:accumulate"
       d="m 81.31728,97.552165 0,-38.183766 -36.062446,0 0,-24.748738 55.861436,0 0,-23.334523"
       id="path5305"
       inkscape:connector-curvature="0" />
    <path
       style="color:#000000;fill:none;stroke:#d0d0d0;stroke-width:5.30000019;stroke-linecap:butt;stroke-linejoin:miter;stroke-miterlimit:4;stroke-opacity:0.90980392;stroke-dasharray:none;stroke-dashoffset:0;marker:none;visibility:visible;display:inline;overflow:visible;enable-background:accumulate"
       d="m 126.57211,73.510534 0,-31.819805 24.74874,0 0,-16.263456"
       id="path5307"
       inkscape:connector-curvature="0" />
    <path
       style="color:#000000;fill:none;stroke:#d0d0d0;stroke-width:5.30000019;stroke-linecap:butt;stroke-linejoin:miter;stroke-miterlimit:4;stroke-opacity:0.90980392;stroke-dasharray:none;stroke-dashoffset:0;marker:none;visibility:visible;display:inline;overflow:visible;enable-background:accumulate"
       d="m 174.65537,64.318146 0,-44.547727 35.35534,0 0,-9.8994949"
       id="path5309"
       inkscape:connector-curvature="0" />
    <path
       style="color:#000000;fill:none;stroke:#d0d0d0;stroke-width:5.30000019;stroke-linecap:butt;stroke-linejoin:miter;stroke-miterlimit:4;stroke-opacity:0.90980392;stroke-dasharray:none;stroke-dashoffset:0;marker:none;visibility:visible;display:inline;overflow:visible;enable-background:accumulate"
       d="m 202.93965,61.489719 0,-21.213203 25.45584,0 0,14.142135 22.62742,0 0,-43.84062"
       id="path5311"
       inkscape:connector-curvature="0" />
    <path
       style="color:#000000;fill:none;stroke:#d0d0d0;stroke-width:5.30000019;stroke-linecap:butt;stroke-linejoin:miter;stroke-miterlimit:4;stroke-opacity:0.90980392;stroke-dasharray:none;stroke-dashoffset:0;marker:none;visibility:visible;display:inline;overflow:visible;enable-background:accumulate"
       d="m 270.11479,75.631855 0,-28.991378"
       id="path5313"
       inkscape:connector-curvature="0" />
    <path
       transform="translate(0,-492.3622)"
       style="color:#000000;fill:none;stroke:#d0d0d0;stroke-width:5.30000019;stroke-linecap:butt;stroke-linejoin:miter;stroke-miterlimit:4;stroke-opacity:0.90980392;stroke-dasharray:none;stroke-dashoffset:0;marker:none;visibility:visible;display:inline;overflow:visible;enable-background:accumulate"
       d="m 67.882251,833.1591 0,129.40054 -29.698485,0"
       id="path5315"
       inkscape:connector-curvature="0" />
    <rect
       transform="translate(0,-492.3622)"
       style="opacity:0.73966944;fill:#d0d0d0;fill-opacity:0.91764706;stroke:none"
       id="rect5330"
       width="4.0187502"
       height="4.0187502"
       x="745.4375"
       y="832.51843" />
    <rect
       transform="translate(0,-492.3622)"
       style="opacity:0.73966944;fill:#d0d0d0;fill-opacity:0.91764706;stroke:none"
       id="rect5330-4"
       width="4.0187502"
       height="4.0187502"
       x="30.826897"
       y="960.50604" />
    <rect
       transform="translate(0,-492.3622)"
       style="opacity:0.73966944;fill:#d0d0d0;fill-opacity:0.91764706;stroke:none"
       id="rect5330-8"
       width="4.0187502"
       height="4.0187502"
       x="207.86563"
       y="496.47781" />
    <rect
       transform="translate(0,-492.3622)"
       style="opacity:0.73966944;fill:#d0d0d0;fill-opacity:0.91764706;stroke:none"
       id="rect5330-0"
       width="4.0187502"
       height="4.0187502"
       x="719.68152"
       y="543.18048" />
    <rect
       transform="translate(0,-492.3622)"
       style="opacity:0.73966944;fill:#d0d0d0;fill-opacity:0.91764706;stroke:none"
       id="rect5330-1"
       width="4.0187502"
       height="4.0187502"
       x="123.76724"
       y="992.72363" />
  </g>
  <g
     inkscape:groupmode="layer"
     id="layer2"
     inkscape:label="Title"
     style="display:inline">
    <path
       style="fill:none;stroke:#2c2c2c;stroke-width:4.91692829;stroke-linecap:butt;stroke-linejoin:miter;stroke-miterlimit:4;stroke-opacity:0.73333333;stroke-dasharray:none"
       d="m 424.07949,263.73623 538.51006,0"
       id="path4630"
       inkscape:connector-curvature="0" />
    <text
       transform="translate(0,-492.3622)"
       xml:space="preserve"
       style="font-size:99.1516037px;font-style:normal;font-variant:normal;font-weight:900;font-stretch:normal;line-height:125%;letter-spacing:0px;word-spacing:0px;fill:#272727;fill-opacity:0.70980602;stroke:none;font-family:Passion One;-inkscape-font-specification:Passion One Heavy"
       x="394.02527"
       y="736.9176"
       id="text5117-5"
       sodipodi:linespacing="125%"><tspan
         sodipodi:role="line"
         id="tspan5119-5"
         x="394.02527"
         y="736.9176"
         style="font-style:normal;font-weight:normal;fill:#272727;fill-opacity:0.70980602;-inkscape-font-specification:Passion One Heavy">Bookmarkendex</tspan></text>
  </g>
  <g
     inkscape:groupmode="layer"
     id="layer3"
     inkscape:label="Stars"
     style="display:inline">
    <path
       sodipodi:type="star"
       style="fill:#f7f214;fill-opacity:1;stroke:#3521b5;stroke-width:2.4061923;stroke-miterlimit:4;stroke-opacity:1;stroke-dasharray:none"
       id="path3009"
       sodipodi:sides="5"
       sodipodi:cx="1014"
       sodipodi:cy="47"
       sodipodi:r1="32.623306"
       sodipodi:r2="14.289008"
       sodipodi:arg1="1.3553608"
       sodipodi:arg2="1.9836793"
       inkscape:flatsided="false"
       inkscape:rounded="0.14"
       inkscape:randomized="0.02"
       d="m 1021.3075,79.386666 c -3.0978,0.706208 -9.7818,-17.773133 -12.6601,-19.036459 -2.8784,-1.263326 -20.8484,5.846324 -22.46438,3.138148 -1.61598,-2.708177 13.19473,-15.223431 13.56956,-18.371432 0.37482,-3.148002 -12.78533,-16.843924 -10.75512,-19.255037 2.03021,-2.411113 18.97724,7.801689 22.03664,7.081114 3.0594,-0.720576 12.6136,-16.475856 15.5754,-15.28496 2.9618,1.190896 -2.3981,18.968618 -0.8452,21.766841 1.5529,2.798223 21.2901,8.045528 20.9909,11.182428 -0.2992,3.1369 -20.3887,3.851809 -22.5607,6.185368 -2.1719,2.33356 0.2109,21.887781 -2.887,22.593989 z"
       transform="matrix(0.78957175,0,0,0.78968684,256.99232,76.09718)"
       inkscape:transform-center-x="1.152072"
       inkscape:transform-center-y="-1.4930962" />
    <path
       sodipodi:type="star"
       style="fill:#f7f214;fill-opacity:1;stroke:#3521b5;stroke-width:2.26232052;stroke-miterlimit:4;stroke-opacity:1;stroke-dasharray:none"
       id="path3781"
       sodipodi:sides="5"
       sodipodi:cx="1014"
       sodipodi:cy="47"
       sodipodi:r1="32.623306"
       sodipodi:r2="14.289008"
       sodipodi:arg1="1.3553608"
       sodipodi:arg2="1.9836793"
       inkscape:flatsided="false"
       inkscape:rounded="0.14"
       inkscape:randomized="0.02"
       d="m 1021.3075,79.386666 c -3.0978,0.706208 -9.7818,-17.773133 -12.6601,-19.036459 -2.8784,-1.263326 -20.8484,5.846324 -22.46438,3.138148 -1.61598,-2.708177 13.19473,-15.223431 13.56956,-18.371432 0.37482,-3.148002 -12.78533,-16.843924 -10.75512,-19.255037 2.03021,-2.411113 18.97724,7.801689 22.03664,7.081114 3.0594,-0.720576 12.6136,-16.475856 15.5754,-15.28496 2.9618,1.190896 -2.3981,18.968618 -0.8452,21.766841 1.5529,2.798223 21.2901,8.045528 20.9909,11.182428 -0.2992,3.1369 -20.3887,3.851809 -22.5607,6.185368 -2.1719,2.33356 0.2109,21.887781 -2.887,22.593989 z"
       transform="matrix(0.27196809,0.79464159,-0.79449577,0.27209522,826.00897,-511.92148)"
       inkscape:transform-center-x="-2.9862676"
       inkscape:transform-center-y="-2.9531305" />
    <path
       sodipodi:type="star"
       style="fill:#f7f214;fill-opacity:1;stroke:#3521b5;stroke-width:2.14572644;stroke-miterlimit:4;stroke-opacity:1;stroke-dasharray:none"
       id="path3783"
       sodipodi:sides="5"
       sodipodi:cx="1014"
       sodipodi:cy="47"
       sodipodi:r1="32.623306"
       sodipodi:r2="14.289008"
       sodipodi:arg1="1.3553608"
       sodipodi:arg2="1.9836793"
       inkscape:flatsided="false"
       inkscape:rounded="0.14"
       inkscape:randomized="0.02"
       d="m 1021.3075,79.386666 c -3.0978,0.706208 -9.7818,-17.773133 -12.6601,-19.036459 -2.8784,-1.263326 -20.8484,5.846324 -22.46438,3.138148 -1.61598,-2.708177 13.19473,-15.223431 13.56956,-18.371432 0.37482,-3.148002 -12.78533,-16.843924 -10.75512,-19.255037 2.03021,-2.411113 18.97724,7.801689 22.03664,7.081114 3.0594,-0.720576 12.6136,-16.475856 15.5754,-15.28496 2.9618,1.190896 -2.3981,18.968618 -0.8452,21.766841 1.5529,2.798223 21.2901,8.045528 20.9909,11.182428 -0.2992,3.1369 -20.3887,3.851809 -22.5607,6.185368 -2.1719,2.33356 0.2109,21.887781 -2.887,22.593989 z"
       transform="matrix(0.85551003,-0.22853658,0.22855331,0.85544741,345.75968,335.43173)"
       inkscape:transform-center-x="2.8016081"
       inkscape:transform-center-y="-2.9504148" />
    <path
       sodipodi:type="inkscape:offset"
       inkscape:radius="6.807641"
       inkscape:original="M 1026.5 17.78125 C 1023.5277 16.607197 1014.1134 32.208679 1011.0625 32.9375 C 1008.0116 33.666322 990.88917 23.550107 988.875 25.96875 C 986.86083 28.387394 1000.1372 41.885631 999.75 45.03125 C 999.36283 48.176869 984.63163 60.798141 986.25 63.5 C 987.86837 66.201859 1005.8464 59.14503 1008.7188 60.40625 C 1011.5912 61.66747 1018.2779 80.211718 1021.375 79.5 C 1024.4722 78.788282 1021.9094 59.169447 1024.0938 56.84375 C 1026.2779 54.518052 1046.5159 53.819937 1046.8125 50.6875 C 1047.109 47.555064 1027.1988 42.15356 1025.6562 39.34375 C 1024.1137 36.53394 1029.4723 18.955303 1026.5 17.78125 z "
       style="opacity:0.95041324;fill:#fdfcc8;fill-opacity:1;stroke:none"
       id="path5320"
       d="m 1026.6562,10.90625 c -2.1937,-0.171712 -3.8932,0.64829 -4.9374,1.25 -1.3924,0.802279 -2.2913,1.629873 -3.1876,2.5 -1.7925,1.740254 -3.437,3.74574 -5.0312,5.71875 -1.5781,1.953093 -3.0975,3.839734 -4.25,5.15625 -0.082,-0.03115 -0.1032,-0.0295 -0.1875,-0.0625 -1.8052,-0.706198 -4.2692,-1.814456 -6.7813,-2.90625 -2.512,-1.091794 -5.01646,-2.171875 -7.49995,-2.9375 -1.24174,-0.382813 -2.45943,-0.707409 -4.0625,-0.8125 -1.60307,-0.105091 -4.54647,-0.208789 -7.0625,2.8125 -2.42478,2.911707 -1.87903,5.982156 -1.4375,7.5625 0.44153,1.580344 1.02594,2.658279 1.65625,3.75 1.26062,2.183442 2.83641,4.269427 4.375,6.34375 1.45294,1.958843 2.81328,3.819449 3.78125,5.25 -1.23254,1.454132 -3.02178,3.340441 -4.8125,5.3125 -1.80755,1.990588 -3.62498,4.007919 -5.125,6.09375 -0.75001,1.042916 -1.45781,2.079619 -2.0625,3.5625 -0.60469,1.482881 -1.59731,4.207248 0.375,7.5 1.96546,3.281328 4.84424,3.708658 6.4375,3.875 1.59326,0.166342 2.82537,0.01343 4.09375,-0.15625 2.53676,-0.33936 5.13318,-0.976124 7.71875,-1.625 2.57465,-0.646128 5.11215,-1.304841 6.93755,-1.6875 0.9293,1.643411 2.0837,4.015302 3.3124,6.40625 1.236,2.404918 2.5004,4.816683 3.9376,6.96875 0.7185,1.076033 1.4149,2.085863 2.625,3.1875 1.21,1.101637 3.6453,3.027691 7.4374,2.15625 3.8136,-0.876338 5.166,-3.769757 5.75,-5.3125 0.5841,-1.542743 0.7573,-2.747707 0.9063,-4.03125 0.2981,-2.567086 0.3026,-5.277242 0.3125,-7.96875 0.01,-2.551106 0.012,-4.988859 0.094,-6.8125 1.9209,-0.379272 4.5559,-0.788871 7.25,-1.21875 2.7411,-0.437391 5.5053,-0.868301 8.0312,-1.5625 1.2629,-0.3471 2.4516,-0.714494 3.875,-1.5 1.4234,-0.785506 4.0904,-2.378777 4.4688,-6.375 0.3824,-4.040856 -1.856,-6.009611 -3.0626,-7.0625 -1.2065,-1.052889 -2.3022,-1.656197 -3.4687,-2.28125 -2.3329,-1.250107 -4.9488,-2.340485 -7.5625,-3.40625 -2.6137,-1.065765 -5.1892,-2.10961 -7,-2.9375 -0.076,-0.03472 -0.083,-0.05965 -0.1562,-0.09375 0.2091,-1.742262 0.613,-4.120706 1,-6.5625 0.398,-2.511708 0.7937,-5.027114 0.875,-7.53125 0.041,-1.252068 0.038,-2.471135 -0.3438,-4.09375 -0.3821,-1.622615 -1.4791,-4.596123 -4.875,-5.9375 -0.8346,-0.329655 -1.6125,-0.474013 -2.3438,-0.53125 z m 3.9376,23.6875 c 0.018,0.01331 0.1023,0.135893 0.125,0.15625 -0.028,-0.01606 -0.1338,-0.04876 -0.1563,-0.0625 -0.1452,-0.08877 -0.1342,-0.213399 0.031,-0.09375 z M 993,46.09375 c 0.0284,0.0529 0.14165,0.219413 0.15625,0.25 0.0454,0.09518 -0.066,0.07105 -0.15625,-0.25 z m 37.1562,13.625 c 0.025,-0.129827 0.097,-0.01221 -0.031,0.3125 0.01,-0.06453 0.024,-0.273057 0.031,-0.3125 z m -25.6562,5.9375 c 0.02,0.02707 0.099,0.150783 0.125,0.1875 -0.2588,-0.230132 -0.2274,-0.325866 -0.125,-0.1875 z"
       transform="matrix(1.7847743,0,0,1.7847743,-676.59142,115.33533)" />
    <path
       inkscape:transform-center-y="-3.3745583"
       inkscape:transform-center-x="2.6041992"
       transform="matrix(1.7847743,0,0,1.7847743,-676.59142,115.33533)"
       d="m 1021.3742,79.490166 c -3.0971,0.711718 -9.7782,-17.826352 -12.6507,-19.087572 -2.8724,-1.26122 -20.85465,5.789138 -22.47302,3.087279 -1.61837,-2.701859 13.10933,-15.322272 13.4965,-18.467891 0.38722,-3.145619 -12.88934,-16.632376 -10.87517,-19.05102 2.01417,-2.418643 19.12909,7.681198 22.17999,6.952376 3.0509,-0.728821 12.4892,-16.331363 15.4615,-15.15731 2.9723,1.174053 -2.4049,18.777734 -0.8624,21.587544 1.5425,2.80981 21.459,8.199669 21.1625,11.332105 -0.2966,3.132437 -20.5309,3.840364 -22.7151,6.166062 -2.1843,2.325697 0.3731,21.926709 -2.7241,22.638427 z"
       inkscape:randomized="0.024"
       inkscape:rounded="0.14"
       inkscape:flatsided="false"
       sodipodi:arg2="1.9836793"
       sodipodi:arg1="1.3553608"
       sodipodi:r2="14.289008"
       sodipodi:r1="32.623306"
       sodipodi:cy="47"
       sodipodi:cx="1014"
       sodipodi:sides="5"
       id="path3785"
       style="fill:#f7f214;fill-opacity:1;stroke:#20146e;stroke-width:2.29720926;stroke-miterlimit:4;stroke-opacity:1;stroke-dasharray:none"
       sodipodi:type="star" />
    <path
       inkscape:transform-center-y="1.8136348"
       inkscape:transform-center-x="-7.4501138"
       transform="matrix(-0.90986557,0.61779793,-0.61778613,-0.90999831,2252.8809,-224.90551)"
       d="m 1021.3075,79.386666 c -3.0978,0.706208 -9.7818,-17.773133 -12.6601,-19.036459 -2.8784,-1.263326 -20.8484,5.846324 -22.46438,3.138148 -1.61598,-2.708177 13.19473,-15.223431 13.56956,-18.371432 0.37482,-3.148002 -12.78533,-16.843924 -10.75512,-19.255037 2.03021,-2.411113 18.97724,7.801689 22.03664,7.081114 3.0594,-0.720576 12.6136,-16.475856 15.5754,-15.28496 2.9618,1.190896 -2.3981,18.968618 -0.8452,21.766841 1.5529,2.798223 21.2901,8.045528 20.9909,11.182428 -0.2992,3.1369 -20.3887,3.851809 -22.5607,6.185368 -2.1719,2.33356 0.2109,21.887781 -2.887,22.593989 z"
       inkscape:randomized="0.02"
       inkscape:rounded="0.14"
       inkscape:flatsided="false"
       sodipodi:arg2="1.9836793"
       sodipodi:arg1="1.3553608"
       sodipodi:r2="14.289008"
       sodipodi:r1="32.623306"
       sodipodi:cy="47"
       sodipodi:cx="1014"
       sodipodi:sides="5"
       id="path3787"
       style="fill:#f7f214;fill-opacity:1;stroke:#3521b5;stroke-width:1.7275275;stroke-miterlimit:4;stroke-opacity:1;stroke-dasharray:none"
       sodipodi:type="star" />
    <path
       sodipodi:type="star"
       style="fill:#f7f214;fill-opacity:1;stroke:#3521b5;stroke-width:1.89999998;stroke-miterlimit:4;stroke-opacity:1;stroke-dasharray:none"
       id="path3789"
       sodipodi:sides="5"
       sodipodi:cx="1014"
       sodipodi:cy="47"
       sodipodi:r1="32.623306"
       sodipodi:r2="14.289008"
       sodipodi:arg1="1.3553608"
       sodipodi:arg2="1.9836793"
       inkscape:flatsided="false"
       inkscape:rounded="0.14"
       inkscape:randomized="0.02"
       d="m 1021.3075,79.386666 c -3.0978,0.706208 -9.7818,-17.773133 -12.6601,-19.036459 -2.8784,-1.263326 -20.8484,5.846324 -22.46438,3.138148 -1.61598,-2.708177 13.19473,-15.223431 13.56956,-18.371432 0.37482,-3.148002 -12.78533,-16.843924 -10.75512,-19.255037 2.03021,-2.411113 18.97724,7.801689 22.03664,7.081114 3.0594,-0.720576 12.6136,-16.475856 15.5754,-15.28496 2.9618,1.190896 -2.3981,18.968618 -0.8452,21.766841 1.5529,2.798223 21.2901,8.045528 20.9909,11.182428 -0.2992,3.1369 -20.3887,3.851809 -22.5607,6.185368 -2.1719,2.33356 0.2109,21.887781 -2.887,22.593989 z"
       transform="matrix(-0.9227428,0.38541633,-0.38541633,-0.9227428,2084.1851,85.7061)" />
    <path
       sodipodi:type="star"
       style="fill:#f7f214;fill-opacity:1;stroke:#3521b5;stroke-width:1.42676735;stroke-miterlimit:4;stroke-opacity:1;stroke-dasharray:none"
       id="path3791"
       sodipodi:sides="5"
       sodipodi:cx="1014"
       sodipodi:cy="47"
       sodipodi:r1="32.623306"
       sodipodi:r2="14.289008"
       sodipodi:arg1="1.3553608"
       sodipodi:arg2="1.9836793"
       inkscape:flatsided="false"
       inkscape:rounded="0.14"
       inkscape:randomized="0.024"
       d="m 1021.3742,79.490166 c -3.0971,0.711718 -9.7782,-17.826352 -12.6507,-19.087572 -2.8724,-1.26122 -20.85465,5.789138 -22.47302,3.087279 -1.61837,-2.701859 13.10933,-15.322272 13.4965,-18.467891 0.38722,-3.145619 -12.88934,-16.632376 -10.87517,-19.05102 2.01417,-2.418643 19.12909,7.681198 22.17999,6.952376 3.0509,-0.728821 12.4892,-16.331363 15.4615,-15.15731 2.9723,1.174053 -2.4049,18.777734 -0.8624,21.587544 1.5425,2.80981 21.459,8.199669 21.1625,11.332105 -0.2966,3.132437 -20.5309,3.840364 -22.7151,6.166062 -2.1843,2.325697 0.3731,21.926709 -2.7241,22.638427 z"
       transform="matrix(0.61356835,1.1818301,-1.1819554,0.61363341,628.88798,-902.40277)"
       inkscape:transform-center-x="-4.4950454"
       inkscape:transform-center-y="-7.545814" />
    <path
       inkscape:transform-center-y="-1.9515649"
       inkscape:transform-center-x="5.6651371"
       transform="matrix(0.7509121,-0.46931588,0.46931351,0.75084733,376.09448,527.78423)"
       d="m 1021.3075,79.386666 c -3.0978,0.706208 -9.7818,-17.773133 -12.6601,-19.036459 -2.8784,-1.263326 -20.8484,5.846324 -22.46438,3.138148 -1.61598,-2.708177 13.19473,-15.223431 13.56956,-18.371432 0.37482,-3.148002 -12.78533,-16.843924 -10.75512,-19.255037 2.03021,-2.411113 18.97724,7.801689 22.03664,7.081114 3.0594,-0.720576 12.6136,-16.475856 15.5754,-15.28496 2.9618,1.190896 -2.3981,18.968618 -0.8452,21.766841 1.5529,2.798223 21.2901,8.045528 20.9909,11.182428 -0.2992,3.1369 -20.3887,3.851809 -22.5607,6.185368 -2.1719,2.33356 0.2109,21.887781 -2.887,22.593989 z"
       inkscape:randomized="0.02"
       inkscape:rounded="0.14"
       inkscape:flatsided="false"
       sodipodi:arg2="1.9836793"
       sodipodi:arg1="1.3553608"
       sodipodi:r2="14.289008"
       sodipodi:r1="32.623306"
       sodipodi:cy="47"
       sodipodi:cx="1014"
       sodipodi:sides="5"
       id="path5265"
       style="fill:#f7f214;fill-opacity:1;stroke:#3521b5;stroke-width:2.14572644;stroke-miterlimit:4;stroke-opacity:1;stroke-dasharray:none"
       sodipodi:type="star" />
    <path
       inkscape:transform-center-y="-0.35682501"
       inkscape:transform-center-x="1.2474808"
       transform="matrix(0.46331495,0.08940292,-0.08938034,0.46328881,524.31926,-54.3051)"
       d="m 1021.3075,79.386666 c -3.0978,0.706208 -9.7818,-17.773133 -12.6601,-19.036459 -2.8784,-1.263326 -20.8484,5.846324 -22.46438,3.138148 -1.61598,-2.708177 13.19473,-15.223431 13.56956,-18.371432 0.37482,-3.148002 -12.78533,-16.843924 -10.75512,-19.255037 2.03021,-2.411113 18.97724,7.801689 22.03664,7.081114 3.0594,-0.720576 12.6136,-16.475856 15.5754,-15.28496 2.9618,1.190896 -2.3981,18.968618 -0.8452,21.766841 1.5529,2.798223 21.2901,8.045528 20.9909,11.182428 -0.2992,3.1369 -20.3887,3.851809 -22.5607,6.185368 -2.1719,2.33356 0.2109,21.887781 -2.887,22.593989 z"
       inkscape:randomized="0.02"
       inkscape:rounded="0.14"
       inkscape:flatsided="false"
       sodipodi:arg2="1.9836793"
       sodipodi:arg1="1.3553608"
       sodipodi:r2="14.289008"
       sodipodi:r1="32.623306"
       sodipodi:cy="47"
       sodipodi:cx="1014"
       sodipodi:sides="5"
       id="path5322"
       style="fill:#f7f214;fill-opacity:1;stroke:#3521b5;stroke-width:2.14572644;stroke-miterlimit:4;stroke-opacity:1;stroke-dasharray:none"
       sodipodi:type="star" />
    <path
       sodipodi:type="star"
       style="fill:#f7f214;fill-opacity:1;stroke:#3521b5;stroke-width:1.7275275;stroke-miterlimit:4;stroke-opacity:1;stroke-dasharray:none"
       id="path5324"
       sodipodi:sides="5"
       sodipodi:cx="1014"
       sodipodi:cy="47"
       sodipodi:r1="32.623306"
       sodipodi:r2="14.289008"
       sodipodi:arg1="1.3553608"
       sodipodi:arg2="1.9836793"
       inkscape:flatsided="false"
       inkscape:rounded="0.14"
       inkscape:randomized="0.02"
       d="m 1021.3075,79.386666 c -3.0978,0.706208 -9.7818,-17.773133 -12.6601,-19.036459 -2.8784,-1.263326 -20.8484,5.846324 -22.46438,3.138148 -1.61598,-2.708177 13.19473,-15.223431 13.56956,-18.371432 0.37482,-3.148002 -12.78533,-16.843924 -10.75512,-19.255037 2.03021,-2.411113 18.97724,7.801689 22.03664,7.081114 3.0594,-0.720576 12.6136,-16.475856 15.5754,-15.28496 2.9618,1.190896 -2.3981,18.968618 -0.8452,21.766841 1.5529,2.798223 21.2901,8.045528 20.9909,11.182428 -0.2992,3.1369 -20.3887,3.851809 -22.5607,6.185368 -2.1719,2.33356 0.2109,21.887781 -2.887,22.593989 z"
       transform="matrix(0.01978753,0.55009932,-0.55015245,0.0197472,1305.098,-86.834136)"
       inkscape:transform-center-x="-1.1554886"
       inkscape:transform-center-y="-0.67691023" />
    <path
       sodipodi:type="star"
       style="fill:#f7f214;fill-opacity:1;stroke:#3521b5;stroke-width:2.14572644;stroke-miterlimit:4;stroke-opacity:1;stroke-dasharray:none"
       id="path5326"
       sodipodi:sides="5"
       sodipodi:cx="1014"
       sodipodi:cy="47"
       sodipodi:r1="32.623306"
       sodipodi:r2="14.289008"
       sodipodi:arg1="1.3553608"
       sodipodi:arg2="1.9836793"
       inkscape:flatsided="false"
       inkscape:rounded="0.14"
       inkscape:randomized="0.02"
       d="m 1021.3075,79.386666 c -3.0978,0.706208 -9.7818,-17.773133 -12.6601,-19.036459 -2.8784,-1.263326 -20.8484,5.846324 -22.46438,3.138148 -1.61598,-2.708177 13.19473,-15.223431 13.56956,-18.371432 0.37482,-3.148002 -12.78533,-16.843924 -10.75512,-19.255037 2.03021,-2.411113 18.97724,7.801689 22.03664,7.081114 3.0594,-0.720576 12.6136,-16.475856 15.5754,-15.28496 2.9618,1.190896 -2.3981,18.968618 -0.8452,21.766841 1.5529,2.798223 21.2901,8.045528 20.9909,11.182428 -0.2992,3.1369 -20.3887,3.851809 -22.5607,6.185368 -2.1719,2.33356 0.2109,21.887781 -2.887,22.593989 z"
       transform="matrix(-0.09633328,0.32062242,-0.32060559,-0.09631547,1409.8661,-263.68214)"
       inkscape:transform-center-x="-0.53219494"
       inkscape:transform-center-y="-1.0840751" />
  </g>
</svg>
